<svg preserveAspectRatio="none" width="100%" height="100%" overflow="visible" style="display: block;" viewBox="0 0 17 17" fill="none" xmlns="http://www.w3.org/2000/svg">
<path id="Vector" d="M15.4715 4.57289C16.1479 5.7711 16.5022 7.1241 16.5 8.5C16.5 9.19156 16.412 9.86267 16.2475 10.5027C15.803 12.2194 14.801 13.7399 13.3987 14.8254C11.9964 15.9108 10.2733 16.4999 8.5 16.5M1.52845 4.57289C0.873336 5.73289 0.500003 7.07333 0.500003 8.5C0.499402 9.17553 0.584223 9.84842 0.752447 10.5027C1.19696 12.2194 2.19903 13.7399 3.60131 14.8254C5.00359 15.9108 6.72667 16.4999 8.5 16.5M8.5 16.5C10.7089 16.5 12.5 12.9178 12.5 8.5C12.5 4.08222 10.7089 0.500001 8.5 0.500001M8.5 16.5C6.29111 16.5 4.5 12.9178 4.5 8.5C4.5 4.08222 6.29111 0.500001 8.5 0.500001M16.2475 10.5027C13.877 11.8168 11.2104 12.5043 8.5 12.5C5.68933 12.5 3.04845 11.7756 0.752447 10.5027M8.5 0.500001C9.91888 0.499409 11.3124 0.876318 12.5375 1.59206C13.7626 2.3078 14.7753 3.33659 15.4715 4.57289M8.5 0.500001C7.08112 0.499409 5.68762 0.876318 4.4625 1.59206C3.23737 2.3078 2.22472 3.33659 1.52845 4.57289M15.4715 4.57289C13.5361 6.24927 11.0605 7.17035 8.5 7.16667C5.83511 7.16667 3.39778 6.18889 1.52845 4.57289" stroke="var(--stroke-0, white)" stroke-linecap="round"/>
</svg>
