<?xml version="1.0" encoding="utf-8"?>
<!-- Generator: Adobe Illustrator 23.0.3, SVG Export Plug-In . SVG Version: 6.00 Build 0)  -->
<svg version="1.2" baseProfile="tiny" id="Layer_1" xmlns="http://www.w3.org/2000/svg" xmlns:xlink="http://www.w3.org/1999/xlink"
	 x="0px" y="0px" viewBox="0 0 30 30" xml:space="preserve">
<rect x="38.12" y="0" fill="#FFFFFF" width="30" height="30"/>
<g>
	<g>
		<path d="M19.53,12.54c-0.28,0-0.5-0.22-0.5-0.5V7.53c0-2.22-1.81-4.02-4.02-4.02s-4.02,1.81-4.02,4.02v4.52
			c0,0.28-0.22,0.5-0.5,0.5c-0.28,0-0.5-0.22-0.5-0.5V7.53c0-2.77,2.25-5.03,5.03-5.03s5.03,2.25,5.03,5.03v4.52
			C20.03,12.32,19.8,12.54,19.53,12.54z"/>
	</g>
	<path d="M25.5,9.28L27.3,26.5H2.7L4.5,9.28H25.5 M26.4,8.28H3.6l-2,19.22h26.81L26.4,8.28L26.4,8.28z"/>
</g>
</svg>
