<?xml version="1.0" encoding="utf-8"?>
<!-- Generator: Adobe Illustrator 23.0.3, SVG Export Plug-In . SVG Version: 6.00 Build 0)  -->
<svg version="1.2" baseProfile="tiny" id="Layer_1" xmlns="http://www.w3.org/2000/svg" xmlns:xlink="http://www.w3.org/1999/xlink"
	 x="0px" y="0px" viewBox="0 0 30 30" xml:space="preserve">
<rect x="46.49" y="0" fill="#FFFFFF" width="30" height="30"/>
<g>
	<path d="M15,3.93c2.68,0,4.86,2.18,4.86,4.86s-2.18,4.86-4.86,4.86s-4.86-2.18-4.86-4.86S12.32,3.93,15,3.93 M15,2.93
		c-3.23,0-5.86,2.62-5.86,5.86s2.62,5.86,5.86,5.86c3.23,0,5.86-2.62,5.86-5.86S18.23,2.93,15,2.93L15,2.93z"/>
	<path fill="none" stroke="#000000" stroke-linecap="round" stroke-miterlimit="10" d="M15,16.14c7.76,0,12,4.2,12,10.93"/>
	<path fill="none" stroke="#000000" stroke-linecap="round" stroke-miterlimit="10" d="M15,16.14c-7.76,0-12,4.2-12,10.93"/>
</g>
</svg>
