<svg width="241" height="56" viewBox="0 0 241 56" fill="none" xmlns="http://www.w3.org/2000/svg">
<rect width="180" height="56" rx="28" fill="#333333" fill-opacity="0.08"/>
<path d="M27.381 22.89C26.697 22.89 26.079 23.01 25.527 23.25C24.975 23.478 24.507 23.82 24.123 24.276C23.739 24.72 23.445 25.266 23.241 25.914C23.037 26.55 22.935 27.27 22.935 28.074C22.935 29.13 23.097 30.048 23.421 30.828C23.757 31.608 24.249 32.208 24.897 32.628C25.557 33.048 26.379 33.258 27.363 33.258C27.927 33.258 28.461 33.21 28.965 33.114C29.469 33.018 29.961 32.898 30.441 32.754V34.158C29.961 34.338 29.463 34.47 28.947 34.554C28.443 34.638 27.837 34.68 27.129 34.68C25.821 34.68 24.729 34.41 23.853 33.87C22.977 33.33 22.317 32.562 21.873 31.566C21.441 30.57 21.225 29.4 21.225 28.056C21.225 27.084 21.357 26.196 21.621 25.392C21.897 24.588 22.293 23.892 22.809 23.304C23.337 22.716 23.985 22.266 24.753 21.954C25.521 21.63 26.403 21.468 27.399 21.468C28.059 21.468 28.695 21.534 29.307 21.666C29.919 21.798 30.465 21.984 30.945 22.224L30.297 23.592C29.901 23.412 29.457 23.25 28.965 23.106C28.485 22.962 27.957 22.89 27.381 22.89ZM41.418 29.658C41.418 30.462 41.31 31.176 41.094 31.8C40.89 32.412 40.59 32.934 40.194 33.366C39.81 33.798 39.336 34.128 38.772 34.356C38.22 34.572 37.602 34.68 36.918 34.68C36.282 34.68 35.694 34.572 35.154 34.356C34.614 34.128 34.146 33.798 33.75 33.366C33.354 32.934 33.042 32.412 32.814 31.8C32.598 31.176 32.49 30.462 32.49 29.658C32.49 28.59 32.67 27.69 33.03 26.958C33.39 26.214 33.906 25.65 34.578 25.266C35.25 24.87 36.048 24.672 36.972 24.672C37.848 24.672 38.616 24.87 39.276 25.266C39.948 25.65 40.47 26.214 40.842 26.958C41.226 27.69 41.418 28.59 41.418 29.658ZM34.128 29.658C34.128 30.414 34.224 31.074 34.416 31.638C34.62 32.19 34.932 32.616 35.352 32.916C35.772 33.216 36.306 33.366 36.954 33.366C37.602 33.366 38.136 33.216 38.556 32.916C38.976 32.616 39.282 32.19 39.474 31.638C39.678 31.074 39.78 30.414 39.78 29.658C39.78 28.89 39.678 28.236 39.474 27.696C39.27 27.156 38.958 26.742 38.538 26.454C38.13 26.154 37.596 26.004 36.936 26.004C35.952 26.004 35.238 26.328 34.794 26.976C34.35 27.624 34.128 28.518 34.128 29.658ZM54.5124 24.672C55.6044 24.672 56.4204 24.954 56.9604 25.518C57.5004 26.07 57.7704 26.97 57.7704 28.218V34.5H56.2044V28.29C56.2044 27.534 56.0424 26.964 55.7184 26.58C55.4064 26.196 54.9144 26.004 54.2424 26.004C53.3064 26.004 52.6344 26.274 52.2264 26.814C51.8304 27.354 51.6324 28.14 51.6324 29.172V34.5H50.0664V28.29C50.0664 27.786 49.9944 27.366 49.8504 27.03C49.7064 26.682 49.4904 26.424 49.2024 26.256C48.9144 26.088 48.5424 26.004 48.0864 26.004C47.4384 26.004 46.9284 26.142 46.5564 26.418C46.1844 26.682 45.9144 27.072 45.7464 27.588C45.5904 28.104 45.5124 28.74 45.5124 29.496V34.5H43.9284V24.852H45.2064L45.4404 26.166H45.5304C45.7344 25.83 45.9804 25.554 46.2684 25.338C46.5684 25.11 46.8984 24.942 47.2584 24.834C47.6184 24.726 47.9904 24.672 48.3744 24.672C49.1184 24.672 49.7364 24.804 50.2284 25.068C50.7324 25.332 51.0984 25.74 51.3264 26.292H51.4164C51.7404 25.74 52.1784 25.332 52.7304 25.068C53.2944 24.804 53.8884 24.672 54.5124 24.672ZM65.3407 24.672C66.5287 24.672 67.4827 25.086 68.2027 25.914C68.9347 26.742 69.3007 27.99 69.3007 29.658C69.3007 30.75 69.1327 31.674 68.7967 32.43C68.4727 33.174 68.0107 33.738 67.4107 34.122C66.8227 34.494 66.1267 34.68 65.3227 34.68C64.8307 34.68 64.3927 34.614 64.0087 34.482C63.6247 34.35 63.2947 34.182 63.0187 33.978C62.7547 33.762 62.5267 33.528 62.3347 33.276H62.2267C62.2507 33.48 62.2747 33.738 62.2987 34.05C62.3227 34.362 62.3347 34.632 62.3347 34.86V38.82H60.7507V24.852H62.0467L62.2627 26.166H62.3347C62.5267 25.89 62.7547 25.638 63.0187 25.41C63.2947 25.182 63.6187 25.002 63.9907 24.87C64.3747 24.738 64.8247 24.672 65.3407 24.672ZM65.0527 26.004C64.4047 26.004 63.8827 26.13 63.4867 26.382C63.0907 26.622 62.8027 26.988 62.6227 27.48C62.4427 27.972 62.3467 28.596 62.3347 29.352V29.658C62.3347 30.45 62.4187 31.122 62.5867 31.674C62.7547 32.226 63.0367 32.646 63.4327 32.934C63.8407 33.222 64.3927 33.366 65.0887 33.366C65.6767 33.366 66.1567 33.204 66.5287 32.88C66.9127 32.556 67.1947 32.118 67.3747 31.566C67.5667 31.002 67.6627 30.36 67.6627 29.64C67.6627 28.536 67.4467 27.654 67.0147 26.994C66.5947 26.334 65.9407 26.004 65.0527 26.004ZM75.4789 24.69C76.6549 24.69 77.5249 24.948 78.0889 25.464C78.6529 25.98 78.9349 26.802 78.9349 27.93V34.5H77.7829L77.4769 33.132H77.4049C77.1289 33.48 76.8409 33.774 76.5409 34.014C76.2529 34.242 75.9169 34.41 75.5329 34.518C75.1609 34.626 74.7049 34.68 74.1649 34.68C73.5889 34.68 73.0669 34.578 72.5989 34.374C72.1429 34.17 71.7829 33.858 71.5189 33.438C71.2549 33.006 71.1229 32.466 71.1229 31.818C71.1229 30.858 71.5009 30.12 72.2569 29.604C73.0129 29.076 74.1769 28.788 75.7489 28.74L77.3869 28.686V28.11C77.3869 27.306 77.2129 26.748 76.8649 26.436C76.5169 26.124 76.0249 25.968 75.3889 25.968C74.8849 25.968 74.4049 26.046 73.9489 26.202C73.4929 26.346 73.0669 26.514 72.6709 26.706L72.1849 25.518C72.6049 25.29 73.1029 25.098 73.6789 24.942C74.2549 24.774 74.8549 24.69 75.4789 24.69ZM75.9469 29.838C74.7469 29.886 73.9129 30.078 73.4449 30.414C72.9889 30.75 72.7609 31.224 72.7609 31.836C72.7609 32.376 72.9229 32.772 73.2469 33.024C73.5829 33.276 74.0089 33.402 74.5249 33.402C75.3409 33.402 76.0189 33.18 76.5589 32.736C77.0989 32.28 77.3689 31.584 77.3689 30.648V29.784L75.9469 29.838ZM86.5588 24.672C87.7108 24.672 88.5808 24.954 89.1688 25.518C89.7568 26.07 90.0508 26.97 90.0508 28.218V34.5H88.4848V28.326C88.4848 27.546 88.3108 26.964 87.9628 26.58C87.6148 26.196 87.0688 26.004 86.3248 26.004C85.2568 26.004 84.5188 26.304 84.1108 26.904C83.7028 27.504 83.4988 28.368 83.4988 29.496V34.5H81.9148V24.852H83.1928L83.4268 26.166H83.5168C83.7328 25.83 83.9968 25.554 84.3088 25.338C84.6328 25.11 84.9868 24.942 85.3708 24.834C85.7548 24.726 86.1508 24.672 86.5588 24.672ZM91.5297 24.852H93.2217L95.3097 30.342C95.4297 30.666 95.5377 30.978 95.6337 31.278C95.7417 31.578 95.8377 31.872 95.9217 32.16C96.0057 32.436 96.0717 32.706 96.1197 32.97H96.1917C96.2637 32.67 96.3777 32.28 96.5337 31.8C96.6897 31.308 96.8517 30.816 97.0197 30.324L98.9817 24.852H100.692L96.5337 35.832C96.3057 36.432 96.0357 36.954 95.7237 37.398C95.4237 37.854 95.0517 38.202 94.6077 38.442C94.1757 38.694 93.6477 38.82 93.0237 38.82C92.7357 38.82 92.4837 38.802 92.2677 38.766C92.0517 38.742 91.8657 38.712 91.7097 38.676V37.416C91.8417 37.44 91.9977 37.464 92.1777 37.488C92.3697 37.512 92.5677 37.524 92.7717 37.524C93.1437 37.524 93.4617 37.452 93.7257 37.308C94.0017 37.176 94.2357 36.978 94.4277 36.714C94.6197 36.462 94.7817 36.162 94.9137 35.814L95.4177 34.536L91.5297 24.852ZM110.511 21.648C112.191 21.648 113.415 21.978 114.183 22.638C114.951 23.298 115.335 24.228 115.335 25.428C115.335 25.956 115.245 26.466 115.065 26.958C114.897 27.438 114.615 27.87 114.219 28.254C113.823 28.638 113.295 28.944 112.635 29.172C111.975 29.388 111.165 29.496 110.205 29.496H108.729V34.5H107.109V21.648H110.511ZM110.367 23.034H108.729V28.11H110.025C110.841 28.11 111.519 28.026 112.059 27.858C112.599 27.678 113.001 27.396 113.265 27.012C113.529 26.628 113.661 26.124 113.661 25.5C113.661 24.672 113.397 24.054 112.869 23.646C112.341 23.238 111.507 23.034 110.367 23.034ZM122.292 24.672C122.472 24.672 122.664 24.684 122.868 24.708C123.084 24.72 123.27 24.744 123.426 24.78L123.228 26.238C123.072 26.202 122.898 26.172 122.706 26.148C122.526 26.124 122.352 26.112 122.184 26.112C121.812 26.112 121.458 26.19 121.122 26.346C120.786 26.502 120.486 26.724 120.222 27.012C119.958 27.288 119.748 27.624 119.592 28.02C119.448 28.416 119.376 28.86 119.376 29.352V34.5H117.792V24.852H119.088L119.268 26.616H119.34C119.544 26.256 119.79 25.932 120.078 25.644C120.366 25.344 120.696 25.11 121.068 24.942C121.44 24.762 121.848 24.672 122.292 24.672ZM133.264 29.658C133.264 30.462 133.156 31.176 132.94 31.8C132.736 32.412 132.436 32.934 132.04 33.366C131.656 33.798 131.182 34.128 130.618 34.356C130.066 34.572 129.448 34.68 128.764 34.68C128.128 34.68 127.54 34.572 127 34.356C126.46 34.128 125.992 33.798 125.596 33.366C125.2 32.934 124.888 32.412 124.66 31.8C124.444 31.176 124.336 30.462 124.336 29.658C124.336 28.59 124.516 27.69 124.876 26.958C125.236 26.214 125.752 25.65 126.424 25.266C127.096 24.87 127.894 24.672 128.818 24.672C129.694 24.672 130.462 24.87 131.122 25.266C131.794 25.65 132.316 26.214 132.688 26.958C133.072 27.69 133.264 28.59 133.264 29.658ZM125.974 29.658C125.974 30.414 126.07 31.074 126.262 31.638C126.466 32.19 126.778 32.616 127.198 32.916C127.618 33.216 128.152 33.366 128.8 33.366C129.448 33.366 129.982 33.216 130.402 32.916C130.822 32.616 131.128 32.19 131.32 31.638C131.524 31.074 131.626 30.414 131.626 29.658C131.626 28.89 131.524 28.236 131.32 27.696C131.116 27.156 130.804 26.742 130.384 26.454C129.976 26.154 129.442 26.004 128.782 26.004C127.798 26.004 127.084 26.328 126.64 26.976C126.196 27.624 125.974 28.518 125.974 29.658ZM140.22 26.076H137.79V34.5H136.206V26.076H134.514V25.338L136.206 24.798V24.24C136.206 23.412 136.326 22.74 136.566 22.224C136.818 21.708 137.178 21.33 137.646 21.09C138.114 20.85 138.678 20.73 139.338 20.73C139.722 20.73 140.07 20.766 140.382 20.838C140.706 20.898 140.982 20.97 141.21 21.054L140.796 22.296C140.604 22.236 140.382 22.176 140.13 22.116C139.878 22.056 139.62 22.026 139.356 22.026C138.828 22.026 138.432 22.206 138.168 22.566C137.916 22.914 137.79 23.466 137.79 24.222V24.852H140.22V26.076ZM143.55 24.852V34.5H141.966V24.852H143.55ZM142.776 21.234C143.016 21.234 143.226 21.318 143.406 21.486C143.598 21.642 143.694 21.894 143.694 22.242C143.694 22.578 143.598 22.83 143.406 22.998C143.226 23.166 143.016 23.25 142.776 23.25C142.512 23.25 142.29 23.166 142.11 22.998C141.93 22.83 141.84 22.578 141.84 22.242C141.84 21.894 141.93 21.642 142.11 21.486C142.29 21.318 142.512 21.234 142.776 21.234ZM148.186 34.5H146.602V20.82H148.186V34.5ZM154.969 24.672C155.797 24.672 156.505 24.852 157.093 25.212C157.693 25.572 158.149 26.082 158.461 26.742C158.785 27.39 158.947 28.152 158.947 29.028V29.982H152.341C152.365 31.074 152.641 31.908 153.169 32.484C153.709 33.048 154.459 33.33 155.419 33.33C156.031 33.33 156.571 33.276 157.039 33.168C157.519 33.048 158.011 32.88 158.515 32.664V34.05C158.023 34.266 157.537 34.422 157.057 34.518C156.577 34.626 156.007 34.68 155.347 34.68C154.435 34.68 153.625 34.494 152.917 34.122C152.221 33.75 151.675 33.198 151.279 32.466C150.895 31.722 150.703 30.816 150.703 29.748C150.703 28.692 150.877 27.786 151.225 27.03C151.585 26.274 152.083 25.692 152.719 25.284C153.367 24.876 154.117 24.672 154.969 24.672ZM154.951 25.968C154.195 25.968 153.595 26.214 153.151 26.706C152.719 27.186 152.461 27.858 152.377 28.722H157.291C157.291 28.17 157.207 27.69 157.039 27.282C156.871 26.874 156.613 26.556 156.265 26.328C155.929 26.088 155.491 25.968 154.951 25.968Z" fill="white"/>
<path d="M190 13C186.693 16.5 185 23.5502 185 26.357C185 31.3599 185.665 35.7697 187.705 39.8806C188.872 41.4717 189.565 43 189.565 43C188.846 41.9767 188.23 40.9385 187.705 39.8806C186.437 38.1536 184.61 36.3526 182.5 36.3526C180.192 36.3526 177.264 40.3351 176.059 42.1351C175.88 42.4221 175.695 42.7102 175.502 43C175.502 43 175.707 42.6605 176.059 42.1351C178.866 37.6292 180 33.3717 180 26.5484C180 22.6774 178.5 17 175 13C176.902 15.0131 179.5 17.2736 182.5 17.2736C185.5 17.2736 188.098 15.013 190 13Z" fill="#333333" fill-opacity="0.08"/>
<rect x="185" width="56" height="56" rx="28" fill="#333333" fill-opacity="0.08"/>
<g clip-path="url(#clip0_430_6600)">
<path d="M215.353 34L221 28L215.353 22M221 28H205" stroke="white"/>
</g>
<defs>
<clipPath id="clip0_430_6600">
<rect width="24" height="24" fill="white" transform="translate(201 16)"/>
</clipPath>
</defs>
</svg>
