<svg width="159" height="56" viewBox="0 0 159 56" fill="none" xmlns="http://www.w3.org/2000/svg">
<rect width="98" height="56" rx="28" fill="#333333" fill-opacity="0.08"/>
<path d="M108 13C104.693 16.5 103 23.5502 103 26.357C103 31.3599 103.665 35.7697 105.705 39.8806C106.872 41.4717 107.565 43 107.565 43C106.846 41.9767 106.23 40.9385 105.705 39.8806C104.437 38.1536 102.61 36.3526 100.5 36.3526C98.1917 36.3526 95.2643 40.3351 94.0591 42.1351C93.8803 42.4221 93.6947 42.7102 93.5022 43C93.5022 43 93.7073 42.6605 94.0591 42.1351C96.8657 37.6292 98 33.3717 98 26.5484C98 22.6774 96.5 17 93 13C94.9018 15.0131 97.4999 17.2736 100.5 17.2736C103.5 17.2736 106.098 15.013 108 13Z" fill="#333333" fill-opacity="0.08"/>
<rect x="103" width="56" height="56" rx="28" fill="#333333" fill-opacity="0.08"/>
</svg>
