<svg width="132" height="20" viewBox="0 0 132 20" fill="none" xmlns="http://www.w3.org/2000/svg">
<path d="M5.14365 0.0604283L10.8597 12.8142L16.6619 0.0604283H21.8055V19.4101H17.5851V7.9762L12.3901 19.2707C12.3267 19.4066 12.2206 19.4005 12.0946 19.415C11.5739 19.475 10.1403 19.4775 9.62278 19.4152C9.52575 19.4035 9.43018 19.4138 9.36294 19.3233L4.22043 8.06417V19.4101H0V0.0604283H5.14365Z" fill="white"/>
<path d="M49.5896 15.4523H53.5023C57.8579 15.4523 60.0487 9.52638 57.4516 6.22461C56.7393 5.31906 54.9381 4.10636 53.7661 4.10636H49.5896V15.4523ZM45.1934 19.4102V0.060506C48.0042 0.191229 50.972 -0.114926 53.7652 0.061357C55.8212 0.191129 58.0687 0.932809 59.6545 2.26197C64.4941 6.31838 63.9917 14.4046 58.6924 17.8295C54.7299 20.3904 49.6624 19.098 45.1934 19.4102Z" fill="white"/>
<path d="M40.7966 0.0604573V4.01834H31.0369V7.71238H40.0932V11.4944H31.0369V15.4523H40.7966V19.4102H26.6406V0.0604573H40.7966Z" fill="white"/>
<path d="M80.8924 4.10631V8.76783H89.4211V12.5498H80.8924V19.4102H76.4961V0.0604573H90.0806L90.2124 0.192382V3.97438L90.0806 4.10631H80.8924Z" fill="white"/>
<path d="M71.7459 19.4102H67.3496V0.0604557H71.7459V19.4102Z" fill="white"/>
<path d="M126.655 15.188C126.333 15.4213 125.45 15.7161 125.073 15.7161H120.72V11.4944H125.337C125.549 11.4944 126.287 11.7861 126.497 11.9171C127.677 12.6564 127.805 14.3546 126.655 15.188ZM120.72 3.84246H124.545C124.589 3.84246 125.18 4.04553 125.266 4.08849C126.536 4.71897 126.573 6.75491 125.355 7.46681C125.227 7.5412 124.556 7.80035 124.457 7.80035H120.72V3.84246ZM128.194 9.29452C129.317 8.5204 130.163 7.70717 130.441 6.31013C131.197 2.51676 128.309 0.272888 124.813 0.0568026C122.048 -0.114073 119.107 0.192031 116.324 0.0604573V19.4102H126.304C128.585 19.4102 131.189 17.5762 131.685 15.2942C132.312 12.4066 130.996 10.1363 128.194 9.29452Z" fill="white"/>
<path d="M105.423 12.198H100.411L102.96 4.72208L105.423 12.198ZM105.767 0.199993C105.703 0.064163 105.598 0.0701204 105.472 0.0555512C103.922 -0.122935 102.039 0.203648 100.451 0.0544007L93.5527 19.4102H98.0369L99.1787 16.1107L106.595 16.0821C106.721 16.1199 106.736 16.2343 106.786 16.331C107.222 17.1658 107.407 18.5135 107.797 19.4102H112.545L105.767 0.199993Z" fill="white"/>
</svg>
