<svg width="100" height="100" viewBox="0 0 100 100" fill="none" xmlns="http://www.w3.org/2000/svg">
<path d="M50 12.75C62.3554 12.75 73.5064 14.7549 81.541 17.9688C85.5603 19.5764 88.763 21.4715 90.9482 23.5381C93.1319 25.6032 94.25 27.7874 94.25 30C94.25 32.2126 93.1319 34.3968 90.9482 36.4619C88.763 38.5285 85.5603 40.4236 81.541 42.0312C73.5064 45.2451 62.3554 47.25 50 47.25C37.6446 47.25 26.4936 45.2451 18.459 42.0312C14.4397 40.4236 11.237 38.5285 9.05176 36.4619C6.86806 34.3968 5.75 32.2126 5.75 30C5.75 27.7874 6.86806 25.6032 9.05176 23.5381C11.237 21.4715 14.4397 19.5764 18.459 17.9688C26.4936 14.7549 37.6446 12.75 50 12.75Z" stroke="#333333" stroke-width="1.5"/>
<path d="M50 32.75C62.3554 32.75 73.5064 34.7549 81.541 37.9688C85.5603 39.5764 88.763 41.4715 90.9482 43.5381C93.1319 45.6032 94.25 47.7874 94.25 50C94.25 52.2126 93.1319 54.3968 90.9482 56.4619C88.763 58.5285 85.5603 60.4236 81.541 62.0312C73.5064 65.2451 62.3554 67.25 50 67.25C37.6446 67.25 26.4936 65.2451 18.459 62.0312C14.4397 60.4236 11.237 58.5285 9.05176 56.4619C6.86806 54.3968 5.75 52.2126 5.75 50C5.75 47.7874 6.86806 45.6032 9.05176 43.5381C11.237 41.4715 14.4397 39.5764 18.459 37.9688C26.4936 34.7549 37.6446 32.75 50 32.75Z" stroke="#333333" stroke-width="1.5"/>
<path d="M50 52.75C62.3554 52.75 73.5064 54.7549 81.541 57.9688C85.5603 59.5764 88.763 61.4715 90.9482 63.5381C93.1319 65.6032 94.25 67.7874 94.25 70C94.25 72.2126 93.1319 74.3968 90.9482 76.4619C88.763 78.5285 85.5603 80.4236 81.541 82.0312C73.5064 85.2451 62.3554 87.25 50 87.25C37.6446 87.25 26.4936 85.2451 18.459 82.0312C14.4397 80.4236 11.237 78.5285 9.05176 76.4619C6.86806 74.3968 5.75 72.2126 5.75 70C5.75 67.7874 6.86806 65.6032 9.05176 63.5381C11.237 61.4715 14.4397 59.5764 18.459 57.9688C26.4936 54.7549 37.6446 52.75 50 52.75Z" stroke="#333333" stroke-width="1.5"/>
<circle cx="50" cy="40" r="2" fill="#333333"/>
</svg>
